<svg width="600" height="56" viewBox="0 0 600 56" fill="none" xmlns="http://www.w3.org/2000/svg">
<path d="M16 56H8V48H16V56ZM8 48H0V8H8V48ZM16 8H8V0H16V8Z" fill="black"/>
<path d="M44 24H56V32H44V44H36V32H24V24H36V12H44V24Z" fill="black"/>
<path d="M72 56H64V48H72V56ZM80 48H72V8H80V48ZM72 8H64V0H72V8Z" fill="black"/>
<path d="M128 48V8H152V16H160V40H152V48H128ZM136 40H151.68V16H136V40Z" fill="black"/>
<path d="M184 48V16H192V8H208V16H216V48H208V32H192V48H184ZM192 24H208V16.32H192V24Z" fill="black"/>
<path d="M240 48V8H264V16H272V24H264V40H272V48H264V40H256V32H248V48H240ZM248 24H263.68V16H248V24Z" fill="black"/>
<path d="M296 48V8H304V24H312V32H320V40H328V48H320V40H312V32H304V48H296ZM320 16V8H328V16H320ZM312 24V16H320V24H312Z" fill="black"/>
<path d="M360 16V8H384V16H360ZM352 40V16H360V40H352ZM376 40V32H368V24H384V40H376ZM360 48V40H376V48H360Z" fill="black"/>
<path d="M408 48V8H432V16H440V24H432V40H440V48H432V40H424V32H416V48H408ZM416 24H431.68V16H416V24Z" fill="black"/>
<path d="M464 48V16H472V8H488V16H496V48H488V32H472V48H464ZM472 24H488V16.32H472V24Z" fill="black"/>
<path d="M520 48V8H544V16H552V40H544V48H520ZM528 40H543.68V16H528V40Z" fill="black"/>
<path d="M576 48V8H600V16H584V24H600V32H584V40H600V48H576Z" fill="black"/>
</svg>
