<svg width="472" height="40" viewBox="0 0 472 40" fill="none" xmlns="http://www.w3.org/2000/svg">
<path d="M0 40V0H24V8H32V32H24V40H0ZM8 32H23.68V8H8V32Z" fill="white"/>
<path d="M56 40V8H64V0H80V8H88V40H80V24H64V40H56ZM64 16H80V8.32H64V16Z" fill="white"/>
<path d="M112 40V0H136V8H144V16H136V32H144V40H136V32H128V24H120V40H112ZM120 16H135.68V8H120V16Z" fill="white"/>
<path d="M168 40V0H176V16H184V24H192V32H200V40H192V32H184V24H176V40H168ZM192 8V0H200V8H192ZM184 16V8H192V16H184Z" fill="white"/>
<path d="M232 8V0H256V8H232ZM224 32V8H232V32H224ZM248 32V24H240V16H256V32H248ZM232 40V32H248V40H232Z" fill="white"/>
<path d="M280 40V0H304V8H312V16H304V32H312V40H304V32H296V24H288V40H280ZM288 16H303.68V8H288V16Z" fill="white"/>
<path d="M336 40V8H344V0H360V8H368V40H360V24H344V40H336ZM344 16H360V8.32H344V16Z" fill="white"/>
<path d="M392 40V0H416V8H424V32H416V40H392ZM400 32H415.68V8H400V32Z" fill="white"/>
<path d="M448 40V0H472V8H456V16H472V24H456V32H472V40H448Z" fill="white"/>
</svg>
