<svg width="1000" height="1000" viewBox="0 0 1000 1000" fill="none" xmlns="http://www.w3.org/2000/svg">
<rect width="1000" height="1000" fill="white"/>
<g clip-path="url(#clip0_4055_1333)">
<path d="M600 400.199V333.709H799.468V400.199H600ZM732.979 599.667V533.178H600V466.688H533.511V400.199H600V466.688H732.979V533.178H799.468V599.667H732.979ZM533.511 666.156V599.667H732.979V666.156H533.511Z" fill="black"/>
<path d="M200 666.156V333.709H266.489V466.688H332.979V533.177H399.468V599.667H465.957V666.156H399.468V599.667H332.979V533.177H266.489V666.156H200ZM399.468 400.199V333.709H465.957V400.199H399.468ZM332.979 466.688V400.199H399.468V466.688H332.979Z" fill="black"/>
</g>
<defs>
<clipPath id="clip0_4055_1333">
<rect width="600" height="332.979" fill="white" transform="translate(200 333.709)"/>
</clipPath>
</defs>
</svg>
