<svg width="1000" height="1000" viewBox="0 0 1000 1000" fill="none" xmlns="http://www.w3.org/2000/svg">
<rect width="1000" height="1000" fill="black"/>
<g clip-path="url(#clip0_4055_1334)">
<path d="M600 397.49V331H799.468V397.49H600ZM732.979 596.958V530.468H600V463.979H533.511V397.49H600V463.979H732.979V530.468H799.468V596.958H732.979ZM533.511 663.447V596.958H732.979V663.447H533.511Z" fill="white"/>
<path d="M200 663.447V331H266.489V463.979H332.979V530.468H399.468V596.957H465.957V663.447H399.468V596.957H332.979V530.468H266.489V663.447H200ZM399.468 397.489V331H465.957V397.489H399.468ZM332.979 463.979V397.489H399.468V463.979H332.979Z" fill="white"/>
</g>
<defs>
<clipPath id="clip0_4055_1334">
<rect width="600" height="332.979" fill="white" transform="translate(200 331)"/>
</clipPath>
</defs>
</svg>
