<svg width="80" height="45" viewBox="0 0 80 45" fill="none" xmlns="http://www.w3.org/2000/svg">
<g clip-path="url(#clip0_4055_1313)">
<path d="M53.3335 8.86528V2.67029e-05H79.9293V8.86528H53.3335ZM71.064 35.461V26.5958H53.3335V17.7305H44.4683V8.86528H53.3335V17.7305H71.064V26.5958H79.9293V35.461H71.064ZM44.4683 44.3263V35.461H71.064V44.3263H44.4683Z" fill="white"/>
<path d="M0 44.3262V0H8.86525V17.7305H17.7305V26.5957H26.5957V35.461H35.461V44.3262H26.5957V35.461H17.7305V26.5957H8.86525V44.3262H0ZM26.5957 8.86525V0H35.461V8.86525H26.5957ZM17.7305 17.7305V8.86525H26.5957V17.7305H17.7305Z" fill="white"/>
</g>
<defs>
<clipPath id="clip0_4055_1313">
<rect width="80" height="44.3972" fill="white"/>
</clipPath>
</defs>
</svg>
